<?xml version="1.0" standalone="no"?>
<!DOCTYPE svg PUBLIC "-//W3C//DTD SVG 1.1//EN" "http://www.w3.org/Graphics/SVG/1.1/DTD/svg11.dtd">

<svg viewBox="0 0 440 80" width="100%" height="100%" 
  xmlns="http://www.w3.org/2000/svg"
  xmlns:xlink="http://www.w3.org/1999/xlink">


<g transform="translate(0 0)">
<rect x="0" y="0" width="80" height="80" fill="#fff"/>
<rect x="0" y="0" width="10" height="10" fill="#a9e66a" style="stroke:#a9e66a; stroke-width:1"/>
<rect x="70" y="0" width="10" height="10" fill="#a9e66a" style="stroke:#a9e66a; stroke-width:1"/>
<rect x="0" y="70" width="10" height="10" fill="#a9e66a" style="stroke:#a9e66a; stroke-width:1"/>
<rect x="70" y="70" width="10" height="10" fill="#a9e66a" style="stroke:#a9e66a; stroke-width:1"/>
<rect x="30" y="0" width="10" height="10" fill="#a9e66a" style="stroke:#a9e66a; stroke-width:1"/>
<rect x="40" y="0" width="10" height="10" fill="#a9e66a" style="stroke:#a9e66a; stroke-width:1"/>
<rect x="30" y="70" width="10" height="10" fill="#a9e66a" style="stroke:#a9e66a; stroke-width:1"/>
<rect x="40" y="70" width="10" height="10" fill="#a9e66a" style="stroke:#a9e66a; stroke-width:1"/>
<rect x="0" y="10" width="10" height="10" fill="#a9e66a" style="stroke:#a9e66a; stroke-width:1"/>
<rect x="70" y="10" width="10" height="10" fill="#a9e66a" style="stroke:#a9e66a; stroke-width:1"/>
<rect x="0" y="60" width="10" height="10" fill="#a9e66a" style="stroke:#a9e66a; stroke-width:1"/>
<rect x="70" y="60" width="10" height="10" fill="#a9e66a" style="stroke:#a9e66a; stroke-width:1"/>
<rect x="10" y="10" width="10" height="10" fill="#a9e66a" style="stroke:#a9e66a; stroke-width:1"/>
<rect x="60" y="10" width="10" height="10" fill="#a9e66a" style="stroke:#a9e66a; stroke-width:1"/>
<rect x="10" y="60" width="10" height="10" fill="#a9e66a" style="stroke:#a9e66a; stroke-width:1"/>
<rect x="60" y="60" width="10" height="10" fill="#a9e66a" style="stroke:#a9e66a; stroke-width:1"/>
<rect x="20" y="10" width="10" height="10" fill="#a9e66a" style="stroke:#a9e66a; stroke-width:1"/>
<rect x="50" y="10" width="10" height="10" fill="#a9e66a" style="stroke:#a9e66a; stroke-width:1"/>
<rect x="20" y="60" width="10" height="10" fill="#a9e66a" style="stroke:#a9e66a; stroke-width:1"/>
<rect x="50" y="60" width="10" height="10" fill="#a9e66a" style="stroke:#a9e66a; stroke-width:1"/>
<rect x="30" y="10" width="10" height="10" fill="#a9e66a" style="stroke:#a9e66a; stroke-width:1"/>
<rect x="40" y="10" width="10" height="10" fill="#a9e66a" style="stroke:#a9e66a; stroke-width:1"/>
<rect x="30" y="60" width="10" height="10" fill="#a9e66a" style="stroke:#a9e66a; stroke-width:1"/>
<rect x="40" y="60" width="10" height="10" fill="#a9e66a" style="stroke:#a9e66a; stroke-width:1"/>
<rect x="0" y="30" width="10" height="10" fill="#a9e66a" style="stroke:#a9e66a; stroke-width:1"/>
<rect x="70" y="30" width="10" height="10" fill="#a9e66a" style="stroke:#a9e66a; stroke-width:1"/>
<rect x="0" y="40" width="10" height="10" fill="#a9e66a" style="stroke:#a9e66a; stroke-width:1"/>
<rect x="70" y="40" width="10" height="10" fill="#a9e66a" style="stroke:#a9e66a; stroke-width:1"/>
<rect x="20" y="30" width="10" height="10" fill="#a9e66a" style="stroke:#a9e66a; stroke-width:1"/>
<rect x="50" y="30" width="10" height="10" fill="#a9e66a" style="stroke:#a9e66a; stroke-width:1"/>
<rect x="20" y="40" width="10" height="10" fill="#a9e66a" style="stroke:#a9e66a; stroke-width:1"/>
<rect x="50" y="40" width="10" height="10" fill="#a9e66a" style="stroke:#a9e66a; stroke-width:1"/>
<rect x="30" y="30" width="10" height="10" fill="#a9e66a" style="stroke:#a9e66a; stroke-width:1"/>
<rect x="40" y="30" width="10" height="10" fill="#a9e66a" style="stroke:#a9e66a; stroke-width:1"/>
<rect x="30" y="40" width="10" height="10" fill="#a9e66a" style="stroke:#a9e66a; stroke-width:1"/>
<rect x="40" y="40" width="10" height="10" fill="#a9e66a" style="stroke:#a9e66a; stroke-width:1"/>
</g>
<g transform="translate(90 0)">
<rect x="0" y="0" width="80" height="80" fill="#fff"/>
<rect x="0" y="0" width="10" height="10" fill="#7d8a69" style="stroke:#7d8a69; stroke-width:1"/>
<rect x="70" y="0" width="10" height="10" fill="#7d8a69" style="stroke:#7d8a69; stroke-width:1"/>
<rect x="0" y="70" width="10" height="10" fill="#7d8a69" style="stroke:#7d8a69; stroke-width:1"/>
<rect x="70" y="70" width="10" height="10" fill="#7d8a69" style="stroke:#7d8a69; stroke-width:1"/>
<rect x="20" y="20" width="10" height="10" fill="#7d8a69" style="stroke:#7d8a69; stroke-width:1"/>
<rect x="50" y="20" width="10" height="10" fill="#7d8a69" style="stroke:#7d8a69; stroke-width:1"/>
<rect x="20" y="50" width="10" height="10" fill="#7d8a69" style="stroke:#7d8a69; stroke-width:1"/>
<rect x="50" y="50" width="10" height="10" fill="#7d8a69" style="stroke:#7d8a69; stroke-width:1"/>
<rect x="10" y="30" width="10" height="10" fill="#7d8a69" style="stroke:#7d8a69; stroke-width:1"/>
<rect x="60" y="30" width="10" height="10" fill="#7d8a69" style="stroke:#7d8a69; stroke-width:1"/>
<rect x="10" y="40" width="10" height="10" fill="#7d8a69" style="stroke:#7d8a69; stroke-width:1"/>
<rect x="60" y="40" width="10" height="10" fill="#7d8a69" style="stroke:#7d8a69; stroke-width:1"/>
<rect x="30" y="30" width="10" height="10" fill="#7d8a69" style="stroke:#7d8a69; stroke-width:1"/>
<rect x="40" y="30" width="10" height="10" fill="#7d8a69" style="stroke:#7d8a69; stroke-width:1"/>
<rect x="30" y="40" width="10" height="10" fill="#7d8a69" style="stroke:#7d8a69; stroke-width:1"/>
<rect x="40" y="40" width="10" height="10" fill="#7d8a69" style="stroke:#7d8a69; stroke-width:1"/>
</g>
<g transform="translate(180 0)">
<rect x="0" y="0" width="80" height="80" fill="#fff"/>
<rect x="30" y="0" width="10" height="10" fill="#dcc933" style="stroke:#dcc933; stroke-width:1"/>
<rect x="40" y="0" width="10" height="10" fill="#dcc933" style="stroke:#dcc933; stroke-width:1"/>
<rect x="30" y="70" width="10" height="10" fill="#dcc933" style="stroke:#dcc933; stroke-width:1"/>
<rect x="40" y="70" width="10" height="10" fill="#dcc933" style="stroke:#dcc933; stroke-width:1"/>
<rect x="0" y="10" width="10" height="10" fill="#dcc933" style="stroke:#dcc933; stroke-width:1"/>
<rect x="70" y="10" width="10" height="10" fill="#dcc933" style="stroke:#dcc933; stroke-width:1"/>
<rect x="0" y="60" width="10" height="10" fill="#dcc933" style="stroke:#dcc933; stroke-width:1"/>
<rect x="70" y="60" width="10" height="10" fill="#dcc933" style="stroke:#dcc933; stroke-width:1"/>
<rect x="10" y="10" width="10" height="10" fill="#dcc933" style="stroke:#dcc933; stroke-width:1"/>
<rect x="60" y="10" width="10" height="10" fill="#dcc933" style="stroke:#dcc933; stroke-width:1"/>
<rect x="10" y="60" width="10" height="10" fill="#dcc933" style="stroke:#dcc933; stroke-width:1"/>
<rect x="60" y="60" width="10" height="10" fill="#dcc933" style="stroke:#dcc933; stroke-width:1"/>
<rect x="30" y="10" width="10" height="10" fill="#dcc933" style="stroke:#dcc933; stroke-width:1"/>
<rect x="40" y="10" width="10" height="10" fill="#dcc933" style="stroke:#dcc933; stroke-width:1"/>
<rect x="30" y="60" width="10" height="10" fill="#dcc933" style="stroke:#dcc933; stroke-width:1"/>
<rect x="40" y="60" width="10" height="10" fill="#dcc933" style="stroke:#dcc933; stroke-width:1"/>
<rect x="10" y="20" width="10" height="10" fill="#dcc933" style="stroke:#dcc933; stroke-width:1"/>
<rect x="60" y="20" width="10" height="10" fill="#dcc933" style="stroke:#dcc933; stroke-width:1"/>
<rect x="10" y="50" width="10" height="10" fill="#dcc933" style="stroke:#dcc933; stroke-width:1"/>
<rect x="60" y="50" width="10" height="10" fill="#dcc933" style="stroke:#dcc933; stroke-width:1"/>
<rect x="10" y="30" width="10" height="10" fill="#dcc933" style="stroke:#dcc933; stroke-width:1"/>
<rect x="60" y="30" width="10" height="10" fill="#dcc933" style="stroke:#dcc933; stroke-width:1"/>
<rect x="10" y="40" width="10" height="10" fill="#dcc933" style="stroke:#dcc933; stroke-width:1"/>
<rect x="60" y="40" width="10" height="10" fill="#dcc933" style="stroke:#dcc933; stroke-width:1"/>
<rect x="20" y="30" width="10" height="10" fill="#dcc933" style="stroke:#dcc933; stroke-width:1"/>
<rect x="50" y="30" width="10" height="10" fill="#dcc933" style="stroke:#dcc933; stroke-width:1"/>
<rect x="20" y="40" width="10" height="10" fill="#dcc933" style="stroke:#dcc933; stroke-width:1"/>
<rect x="50" y="40" width="10" height="10" fill="#dcc933" style="stroke:#dcc933; stroke-width:1"/>
</g>
<g transform="translate(270 0)">
<rect x="0" y="0" width="80" height="80" fill="#fff"/>
<rect x="10" y="0" width="10" height="10" fill="#6c3bb8" style="stroke:#6c3bb8; stroke-width:1"/>
<rect x="60" y="0" width="10" height="10" fill="#6c3bb8" style="stroke:#6c3bb8; stroke-width:1"/>
<rect x="10" y="70" width="10" height="10" fill="#6c3bb8" style="stroke:#6c3bb8; stroke-width:1"/>
<rect x="60" y="70" width="10" height="10" fill="#6c3bb8" style="stroke:#6c3bb8; stroke-width:1"/>
<rect x="30" y="0" width="10" height="10" fill="#6c3bb8" style="stroke:#6c3bb8; stroke-width:1"/>
<rect x="40" y="0" width="10" height="10" fill="#6c3bb8" style="stroke:#6c3bb8; stroke-width:1"/>
<rect x="30" y="70" width="10" height="10" fill="#6c3bb8" style="stroke:#6c3bb8; stroke-width:1"/>
<rect x="40" y="70" width="10" height="10" fill="#6c3bb8" style="stroke:#6c3bb8; stroke-width:1"/>
<rect x="0" y="20" width="10" height="10" fill="#6c3bb8" style="stroke:#6c3bb8; stroke-width:1"/>
<rect x="70" y="20" width="10" height="10" fill="#6c3bb8" style="stroke:#6c3bb8; stroke-width:1"/>
<rect x="0" y="50" width="10" height="10" fill="#6c3bb8" style="stroke:#6c3bb8; stroke-width:1"/>
<rect x="70" y="50" width="10" height="10" fill="#6c3bb8" style="stroke:#6c3bb8; stroke-width:1"/>
<rect x="0" y="30" width="10" height="10" fill="#6c3bb8" style="stroke:#6c3bb8; stroke-width:1"/>
<rect x="70" y="30" width="10" height="10" fill="#6c3bb8" style="stroke:#6c3bb8; stroke-width:1"/>
<rect x="0" y="40" width="10" height="10" fill="#6c3bb8" style="stroke:#6c3bb8; stroke-width:1"/>
<rect x="70" y="40" width="10" height="10" fill="#6c3bb8" style="stroke:#6c3bb8; stroke-width:1"/>
<rect x="10" y="30" width="10" height="10" fill="#6c3bb8" style="stroke:#6c3bb8; stroke-width:1"/>
<rect x="60" y="30" width="10" height="10" fill="#6c3bb8" style="stroke:#6c3bb8; stroke-width:1"/>
<rect x="10" y="40" width="10" height="10" fill="#6c3bb8" style="stroke:#6c3bb8; stroke-width:1"/>
<rect x="60" y="40" width="10" height="10" fill="#6c3bb8" style="stroke:#6c3bb8; stroke-width:1"/>
</g>
<g transform="translate(360 0)">
<rect x="0" y="0" width="80" height="80" fill="#fff"/>
<rect x="0" y="0" width="10" height="10" fill="#18dc8b" style="stroke:#18dc8b; stroke-width:1"/>
<rect x="70" y="0" width="10" height="10" fill="#18dc8b" style="stroke:#18dc8b; stroke-width:1"/>
<rect x="0" y="70" width="10" height="10" fill="#18dc8b" style="stroke:#18dc8b; stroke-width:1"/>
<rect x="70" y="70" width="10" height="10" fill="#18dc8b" style="stroke:#18dc8b; stroke-width:1"/>
<rect x="30" y="0" width="10" height="10" fill="#18dc8b" style="stroke:#18dc8b; stroke-width:1"/>
<rect x="40" y="0" width="10" height="10" fill="#18dc8b" style="stroke:#18dc8b; stroke-width:1"/>
<rect x="30" y="70" width="10" height="10" fill="#18dc8b" style="stroke:#18dc8b; stroke-width:1"/>
<rect x="40" y="70" width="10" height="10" fill="#18dc8b" style="stroke:#18dc8b; stroke-width:1"/>
<rect x="0" y="30" width="10" height="10" fill="#18dc8b" style="stroke:#18dc8b; stroke-width:1"/>
<rect x="70" y="30" width="10" height="10" fill="#18dc8b" style="stroke:#18dc8b; stroke-width:1"/>
<rect x="0" y="40" width="10" height="10" fill="#18dc8b" style="stroke:#18dc8b; stroke-width:1"/>
<rect x="70" y="40" width="10" height="10" fill="#18dc8b" style="stroke:#18dc8b; stroke-width:1"/>
</g>

</svg>