<?xml version="1.0" standalone="no"?>
<!DOCTYPE svg PUBLIC "-//W3C//DTD SVG 1.1//EN" "http://www.w3.org/Graphics/SVG/1.1/DTD/svg11.dtd">

<svg viewBox="0 0 290 50" width="100%" height="100%" 
  xmlns="http://www.w3.org/2000/svg"
  xmlns:xlink="http://www.w3.org/1999/xlink">


<g transform="translate(0 0)">
<rect x="0" y="0" width="50" height="50" fill="#fff"/>
<rect x="10" y="10" width="10" height="10" fill="#5e0b7f" style="stroke:#5e0b7f; stroke-width:0.1"/>
<rect x="30" y="10" width="10" height="10" fill="#5e0b7f" style="stroke:#5e0b7f; stroke-width:0.1"/>
<rect x="20" y="10" width="10" height="10" fill="#5e0b7f" style="stroke:#5e0b7f; stroke-width:0.1"/>
<rect x="0" y="20" width="10" height="10" fill="#5e0b7f" style="stroke:#5e0b7f; stroke-width:0.1"/>
<rect x="40" y="20" width="10" height="10" fill="#5e0b7f" style="stroke:#5e0b7f; stroke-width:0.1"/>
<rect x="20" y="20" width="10" height="10" fill="#5e0b7f" style="stroke:#5e0b7f; stroke-width:0.1"/>
<rect x="10" y="30" width="10" height="10" fill="#5e0b7f" style="stroke:#5e0b7f; stroke-width:0.1"/>
<rect x="30" y="30" width="10" height="10" fill="#5e0b7f" style="stroke:#5e0b7f; stroke-width:0.1"/>
<rect x="0" y="40" width="10" height="10" fill="#5e0b7f" style="stroke:#5e0b7f; stroke-width:0.1"/>
<rect x="40" y="40" width="10" height="10" fill="#5e0b7f" style="stroke:#5e0b7f; stroke-width:0.1"/>
<rect x="10" y="40" width="10" height="10" fill="#5e0b7f" style="stroke:#5e0b7f; stroke-width:0.1"/>
<rect x="30" y="40" width="10" height="10" fill="#5e0b7f" style="stroke:#5e0b7f; stroke-width:0.1"/>
</g>
<g transform="translate(60 0)">
<rect x="0" y="0" width="50" height="50" fill="#fff"/>
<rect x="10" y="10" width="10" height="10" fill="#5e0b7f" style="stroke:#5e0b7f; stroke-width:1.1"/>
<rect x="30" y="10" width="10" height="10" fill="#5e0b7f" style="stroke:#5e0b7f; stroke-width:1.1"/>
<rect x="20" y="10" width="10" height="10" fill="#5e0b7f" style="stroke:#5e0b7f; stroke-width:1.1"/>
<rect x="0" y="20" width="10" height="10" fill="#5e0b7f" style="stroke:#5e0b7f; stroke-width:1.1"/>
<rect x="40" y="20" width="10" height="10" fill="#5e0b7f" style="stroke:#5e0b7f; stroke-width:1.1"/>
<rect x="20" y="20" width="10" height="10" fill="#5e0b7f" style="stroke:#5e0b7f; stroke-width:1.1"/>
<rect x="10" y="30" width="10" height="10" fill="#5e0b7f" style="stroke:#5e0b7f; stroke-width:1.1"/>
<rect x="30" y="30" width="10" height="10" fill="#5e0b7f" style="stroke:#5e0b7f; stroke-width:1.1"/>
<rect x="0" y="40" width="10" height="10" fill="#5e0b7f" style="stroke:#5e0b7f; stroke-width:1.1"/>
<rect x="40" y="40" width="10" height="10" fill="#5e0b7f" style="stroke:#5e0b7f; stroke-width:1.1"/>
<rect x="10" y="40" width="10" height="10" fill="#5e0b7f" style="stroke:#5e0b7f; stroke-width:1.1"/>
<rect x="30" y="40" width="10" height="10" fill="#5e0b7f" style="stroke:#5e0b7f; stroke-width:1.1"/>
</g>
<g transform="translate(120 0)">
<rect x="0" y="0" width="50" height="50" fill="#fff"/>
<rect x="10" y="10" width="10" height="10" fill="#5e0b7f" style="stroke:#5e0b7f; stroke-width:2.1"/>
<rect x="30" y="10" width="10" height="10" fill="#5e0b7f" style="stroke:#5e0b7f; stroke-width:2.1"/>
<rect x="20" y="10" width="10" height="10" fill="#5e0b7f" style="stroke:#5e0b7f; stroke-width:2.1"/>
<rect x="0" y="20" width="10" height="10" fill="#5e0b7f" style="stroke:#5e0b7f; stroke-width:2.1"/>
<rect x="40" y="20" width="10" height="10" fill="#5e0b7f" style="stroke:#5e0b7f; stroke-width:2.1"/>
<rect x="20" y="20" width="10" height="10" fill="#5e0b7f" style="stroke:#5e0b7f; stroke-width:2.1"/>
<rect x="10" y="30" width="10" height="10" fill="#5e0b7f" style="stroke:#5e0b7f; stroke-width:2.1"/>
<rect x="30" y="30" width="10" height="10" fill="#5e0b7f" style="stroke:#5e0b7f; stroke-width:2.1"/>
<rect x="0" y="40" width="10" height="10" fill="#5e0b7f" style="stroke:#5e0b7f; stroke-width:2.1"/>
<rect x="40" y="40" width="10" height="10" fill="#5e0b7f" style="stroke:#5e0b7f; stroke-width:2.1"/>
<rect x="10" y="40" width="10" height="10" fill="#5e0b7f" style="stroke:#5e0b7f; stroke-width:2.1"/>
<rect x="30" y="40" width="10" height="10" fill="#5e0b7f" style="stroke:#5e0b7f; stroke-width:2.1"/>
</g>
<g transform="translate(180 0)">
<rect x="0" y="0" width="50" height="50" fill="#fff"/>
<rect x="10" y="10" width="10" height="10" fill="#5e0b7f" style="stroke:#5e0b7f; stroke-width:3.1"/>
<rect x="30" y="10" width="10" height="10" fill="#5e0b7f" style="stroke:#5e0b7f; stroke-width:3.1"/>
<rect x="20" y="10" width="10" height="10" fill="#5e0b7f" style="stroke:#5e0b7f; stroke-width:3.1"/>
<rect x="0" y="20" width="10" height="10" fill="#5e0b7f" style="stroke:#5e0b7f; stroke-width:3.1"/>
<rect x="40" y="20" width="10" height="10" fill="#5e0b7f" style="stroke:#5e0b7f; stroke-width:3.1"/>
<rect x="20" y="20" width="10" height="10" fill="#5e0b7f" style="stroke:#5e0b7f; stroke-width:3.1"/>
<rect x="10" y="30" width="10" height="10" fill="#5e0b7f" style="stroke:#5e0b7f; stroke-width:3.1"/>
<rect x="30" y="30" width="10" height="10" fill="#5e0b7f" style="stroke:#5e0b7f; stroke-width:3.1"/>
<rect x="0" y="40" width="10" height="10" fill="#5e0b7f" style="stroke:#5e0b7f; stroke-width:3.1"/>
<rect x="40" y="40" width="10" height="10" fill="#5e0b7f" style="stroke:#5e0b7f; stroke-width:3.1"/>
<rect x="10" y="40" width="10" height="10" fill="#5e0b7f" style="stroke:#5e0b7f; stroke-width:3.1"/>
<rect x="30" y="40" width="10" height="10" fill="#5e0b7f" style="stroke:#5e0b7f; stroke-width:3.1"/>
</g>
<g transform="translate(240 0)">
<rect x="0" y="0" width="50" height="50" fill="#fff"/>
<rect x="10" y="10" width="10" height="10" fill="#5e0b7f" style="stroke:#5e0b7f; stroke-width:4.1"/>
<rect x="30" y="10" width="10" height="10" fill="#5e0b7f" style="stroke:#5e0b7f; stroke-width:4.1"/>
<rect x="20" y="10" width="10" height="10" fill="#5e0b7f" style="stroke:#5e0b7f; stroke-width:4.1"/>
<rect x="0" y="20" width="10" height="10" fill="#5e0b7f" style="stroke:#5e0b7f; stroke-width:4.1"/>
<rect x="40" y="20" width="10" height="10" fill="#5e0b7f" style="stroke:#5e0b7f; stroke-width:4.1"/>
<rect x="20" y="20" width="10" height="10" fill="#5e0b7f" style="stroke:#5e0b7f; stroke-width:4.1"/>
<rect x="10" y="30" width="10" height="10" fill="#5e0b7f" style="stroke:#5e0b7f; stroke-width:4.1"/>
<rect x="30" y="30" width="10" height="10" fill="#5e0b7f" style="stroke:#5e0b7f; stroke-width:4.1"/>
<rect x="0" y="40" width="10" height="10" fill="#5e0b7f" style="stroke:#5e0b7f; stroke-width:4.1"/>
<rect x="40" y="40" width="10" height="10" fill="#5e0b7f" style="stroke:#5e0b7f; stroke-width:4.1"/>
<rect x="10" y="40" width="10" height="10" fill="#5e0b7f" style="stroke:#5e0b7f; stroke-width:4.1"/>
<rect x="30" y="40" width="10" height="10" fill="#5e0b7f" style="stroke:#5e0b7f; stroke-width:4.1"/>
</g>

</svg>