<?xml version="1.0" standalone="no"?>
<!DOCTYPE svg PUBLIC "-//W3C//DTD SVG 1.1//EN" "http://www.w3.org/Graphics/SVG/1.1/DTD/svg11.dtd">

<svg viewBox="0 0 410 50" width="100%" height="100%" 
  xmlns="http://www.w3.org/2000/svg"
  xmlns:xlink="http://www.w3.org/1999/xlink">


<g transform="translate(0 0)">
<rect x="0" y="0" width="50" height="50" fill="#fff"/>
<rect x="0" y="0" width="10" height="10" fill="#764a7b" style="stroke:#764a7b; stroke-width:1"/>
<rect x="40" y="0" width="10" height="10" fill="#764a7b" style="stroke:#764a7b; stroke-width:1"/>
<rect x="10" y="0" width="10" height="10" fill="#764a7b" style="stroke:#764a7b; stroke-width:1"/>
<rect x="30" y="0" width="10" height="10" fill="#764a7b" style="stroke:#764a7b; stroke-width:1"/>
<rect x="20" y="10" width="10" height="10" fill="#764a7b" style="stroke:#764a7b; stroke-width:1"/>
<rect x="0" y="20" width="10" height="10" fill="#764a7b" style="stroke:#764a7b; stroke-width:1"/>
<rect x="40" y="20" width="10" height="10" fill="#764a7b" style="stroke:#764a7b; stroke-width:1"/>
<rect x="20" y="20" width="10" height="10" fill="#764a7b" style="stroke:#764a7b; stroke-width:1"/>
<rect x="20" y="30" width="10" height="10" fill="#764a7b" style="stroke:#764a7b; stroke-width:1"/>
<rect x="0" y="40" width="10" height="10" fill="#764a7b" style="stroke:#764a7b; stroke-width:1"/>
<rect x="40" y="40" width="10" height="10" fill="#764a7b" style="stroke:#764a7b; stroke-width:1"/>
<rect x="10" y="40" width="10" height="10" fill="#764a7b" style="stroke:#764a7b; stroke-width:1"/>
<rect x="30" y="40" width="10" height="10" fill="#764a7b" style="stroke:#764a7b; stroke-width:1"/>
<rect x="20" y="40" width="10" height="10" fill="#764a7b" style="stroke:#764a7b; stroke-width:1"/>
</g>
<g transform="translate(60 0)">
<rect x="0" y="0" width="50" height="50" fill="#fff"/>
<rect x="0" y="0" width="10" height="10" fill="#dd8846" style="stroke:#dd8846; stroke-width:1"/>
<rect x="40" y="0" width="10" height="10" fill="#dd8846" style="stroke:#dd8846; stroke-width:1"/>
<rect x="0" y="10" width="10" height="10" fill="#dd8846" style="stroke:#dd8846; stroke-width:1"/>
<rect x="40" y="10" width="10" height="10" fill="#dd8846" style="stroke:#dd8846; stroke-width:1"/>
<rect x="20" y="10" width="10" height="10" fill="#dd8846" style="stroke:#dd8846; stroke-width:1"/>
<rect x="0" y="20" width="10" height="10" fill="#dd8846" style="stroke:#dd8846; stroke-width:1"/>
<rect x="40" y="20" width="10" height="10" fill="#dd8846" style="stroke:#dd8846; stroke-width:1"/>
<rect x="10" y="20" width="10" height="10" fill="#dd8846" style="stroke:#dd8846; stroke-width:1"/>
<rect x="30" y="20" width="10" height="10" fill="#dd8846" style="stroke:#dd8846; stroke-width:1"/>
<rect x="10" y="30" width="10" height="10" fill="#dd8846" style="stroke:#dd8846; stroke-width:1"/>
<rect x="30" y="30" width="10" height="10" fill="#dd8846" style="stroke:#dd8846; stroke-width:1"/>
<rect x="20" y="30" width="10" height="10" fill="#dd8846" style="stroke:#dd8846; stroke-width:1"/>
<rect x="20" y="40" width="10" height="10" fill="#dd8846" style="stroke:#dd8846; stroke-width:1"/>
</g>
<g transform="translate(120 0)">
<rect x="0" y="0" width="50" height="50" fill="#fff"/>
<rect x="0" y="0" width="10" height="10" fill="#ed74b8" style="stroke:#ed74b8; stroke-width:1"/>
<rect x="40" y="0" width="10" height="10" fill="#ed74b8" style="stroke:#ed74b8; stroke-width:1"/>
<rect x="20" y="0" width="10" height="10" fill="#ed74b8" style="stroke:#ed74b8; stroke-width:1"/>
<rect x="0" y="10" width="10" height="10" fill="#ed74b8" style="stroke:#ed74b8; stroke-width:1"/>
<rect x="40" y="10" width="10" height="10" fill="#ed74b8" style="stroke:#ed74b8; stroke-width:1"/>
<rect x="10" y="10" width="10" height="10" fill="#ed74b8" style="stroke:#ed74b8; stroke-width:1"/>
<rect x="30" y="10" width="10" height="10" fill="#ed74b8" style="stroke:#ed74b8; stroke-width:1"/>
<rect x="10" y="20" width="10" height="10" fill="#ed74b8" style="stroke:#ed74b8; stroke-width:1"/>
<rect x="30" y="20" width="10" height="10" fill="#ed74b8" style="stroke:#ed74b8; stroke-width:1"/>
<rect x="20" y="20" width="10" height="10" fill="#ed74b8" style="stroke:#ed74b8; stroke-width:1"/>
<rect x="0" y="30" width="10" height="10" fill="#ed74b8" style="stroke:#ed74b8; stroke-width:1"/>
<rect x="40" y="30" width="10" height="10" fill="#ed74b8" style="stroke:#ed74b8; stroke-width:1"/>
<rect x="10" y="30" width="10" height="10" fill="#ed74b8" style="stroke:#ed74b8; stroke-width:1"/>
<rect x="30" y="30" width="10" height="10" fill="#ed74b8" style="stroke:#ed74b8; stroke-width:1"/>
<rect x="0" y="40" width="10" height="10" fill="#ed74b8" style="stroke:#ed74b8; stroke-width:1"/>
<rect x="40" y="40" width="10" height="10" fill="#ed74b8" style="stroke:#ed74b8; stroke-width:1"/>
<rect x="10" y="40" width="10" height="10" fill="#ed74b8" style="stroke:#ed74b8; stroke-width:1"/>
<rect x="30" y="40" width="10" height="10" fill="#ed74b8" style="stroke:#ed74b8; stroke-width:1"/>
</g>
<g transform="translate(180 0)">
<rect x="0" y="0" width="50" height="50" fill="#fff"/>
<rect x="20" y="0" width="10" height="10" fill="#0ae537" style="stroke:#0ae537; stroke-width:1"/>
<rect x="0" y="10" width="10" height="10" fill="#0ae537" style="stroke:#0ae537; stroke-width:1"/>
<rect x="40" y="10" width="10" height="10" fill="#0ae537" style="stroke:#0ae537; stroke-width:1"/>
<rect x="10" y="10" width="10" height="10" fill="#0ae537" style="stroke:#0ae537; stroke-width:1"/>
<rect x="30" y="10" width="10" height="10" fill="#0ae537" style="stroke:#0ae537; stroke-width:1"/>
<rect x="0" y="20" width="10" height="10" fill="#0ae537" style="stroke:#0ae537; stroke-width:1"/>
<rect x="40" y="20" width="10" height="10" fill="#0ae537" style="stroke:#0ae537; stroke-width:1"/>
<rect x="20" y="30" width="10" height="10" fill="#0ae537" style="stroke:#0ae537; stroke-width:1"/>
<rect x="10" y="40" width="10" height="10" fill="#0ae537" style="stroke:#0ae537; stroke-width:1"/>
<rect x="30" y="40" width="10" height="10" fill="#0ae537" style="stroke:#0ae537; stroke-width:1"/>
</g>
<g transform="translate(240 0)">
<rect x="0" y="0" width="50" height="50" fill="#fff"/>
<rect x="0" y="0" width="10" height="10" fill="#442df8" style="stroke:#442df8; stroke-width:1"/>
<rect x="40" y="0" width="10" height="10" fill="#442df8" style="stroke:#442df8; stroke-width:1"/>
<rect x="10" y="0" width="10" height="10" fill="#442df8" style="stroke:#442df8; stroke-width:1"/>
<rect x="30" y="0" width="10" height="10" fill="#442df8" style="stroke:#442df8; stroke-width:1"/>
<rect x="0" y="10" width="10" height="10" fill="#442df8" style="stroke:#442df8; stroke-width:1"/>
<rect x="40" y="10" width="10" height="10" fill="#442df8" style="stroke:#442df8; stroke-width:1"/>
<rect x="0" y="20" width="10" height="10" fill="#442df8" style="stroke:#442df8; stroke-width:1"/>
<rect x="40" y="20" width="10" height="10" fill="#442df8" style="stroke:#442df8; stroke-width:1"/>
<rect x="0" y="30" width="10" height="10" fill="#442df8" style="stroke:#442df8; stroke-width:1"/>
<rect x="40" y="30" width="10" height="10" fill="#442df8" style="stroke:#442df8; stroke-width:1"/>
<rect x="20" y="30" width="10" height="10" fill="#442df8" style="stroke:#442df8; stroke-width:1"/>
<rect x="0" y="40" width="10" height="10" fill="#442df8" style="stroke:#442df8; stroke-width:1"/>
<rect x="40" y="40" width="10" height="10" fill="#442df8" style="stroke:#442df8; stroke-width:1"/>
<rect x="10" y="40" width="10" height="10" fill="#442df8" style="stroke:#442df8; stroke-width:1"/>
<rect x="30" y="40" width="10" height="10" fill="#442df8" style="stroke:#442df8; stroke-width:1"/>
<rect x="20" y="40" width="10" height="10" fill="#442df8" style="stroke:#442df8; stroke-width:1"/>
</g>
<g transform="translate(300 0)">
<rect x="0" y="0" width="50" height="50" fill="#fff"/>
<rect x="0" y="10" width="10" height="10" fill="#1b3f88" style="stroke:#1b3f88; stroke-width:1"/>
<rect x="40" y="10" width="10" height="10" fill="#1b3f88" style="stroke:#1b3f88; stroke-width:1"/>
<rect x="0" y="20" width="10" height="10" fill="#1b3f88" style="stroke:#1b3f88; stroke-width:1"/>
<rect x="40" y="20" width="10" height="10" fill="#1b3f88" style="stroke:#1b3f88; stroke-width:1"/>
<rect x="10" y="20" width="10" height="10" fill="#1b3f88" style="stroke:#1b3f88; stroke-width:1"/>
<rect x="30" y="20" width="10" height="10" fill="#1b3f88" style="stroke:#1b3f88; stroke-width:1"/>
<rect x="0" y="30" width="10" height="10" fill="#1b3f88" style="stroke:#1b3f88; stroke-width:1"/>
<rect x="40" y="30" width="10" height="10" fill="#1b3f88" style="stroke:#1b3f88; stroke-width:1"/>
<rect x="10" y="30" width="10" height="10" fill="#1b3f88" style="stroke:#1b3f88; stroke-width:1"/>
<rect x="30" y="30" width="10" height="10" fill="#1b3f88" style="stroke:#1b3f88; stroke-width:1"/>
<rect x="10" y="40" width="10" height="10" fill="#1b3f88" style="stroke:#1b3f88; stroke-width:1"/>
<rect x="30" y="40" width="10" height="10" fill="#1b3f88" style="stroke:#1b3f88; stroke-width:1"/>
</g>
<g transform="translate(360 0)">
<rect x="0" y="0" width="50" height="50" fill="#fff"/>
<rect x="0" y="0" width="10" height="10" fill="#093171" style="stroke:#093171; stroke-width:1"/>
<rect x="40" y="0" width="10" height="10" fill="#093171" style="stroke:#093171; stroke-width:1"/>
<rect x="10" y="0" width="10" height="10" fill="#093171" style="stroke:#093171; stroke-width:1"/>
<rect x="30" y="0" width="10" height="10" fill="#093171" style="stroke:#093171; stroke-width:1"/>
<rect x="20" y="0" width="10" height="10" fill="#093171" style="stroke:#093171; stroke-width:1"/>
<rect x="0" y="10" width="10" height="10" fill="#093171" style="stroke:#093171; stroke-width:1"/>
<rect x="40" y="10" width="10" height="10" fill="#093171" style="stroke:#093171; stroke-width:1"/>
<rect x="10" y="10" width="10" height="10" fill="#093171" style="stroke:#093171; stroke-width:1"/>
<rect x="30" y="10" width="10" height="10" fill="#093171" style="stroke:#093171; stroke-width:1"/>
<rect x="0" y="20" width="10" height="10" fill="#093171" style="stroke:#093171; stroke-width:1"/>
<rect x="40" y="20" width="10" height="10" fill="#093171" style="stroke:#093171; stroke-width:1"/>
<rect x="10" y="30" width="10" height="10" fill="#093171" style="stroke:#093171; stroke-width:1"/>
<rect x="30" y="30" width="10" height="10" fill="#093171" style="stroke:#093171; stroke-width:1"/>
<rect x="10" y="40" width="10" height="10" fill="#093171" style="stroke:#093171; stroke-width:1"/>
<rect x="30" y="40" width="10" height="10" fill="#093171" style="stroke:#093171; stroke-width:1"/>
</g>

</svg>