<?xml version="1.0" standalone="no"?>
<!DOCTYPE svg PUBLIC "-//W3C//DTD SVG 1.1//EN" "http://www.w3.org/Graphics/SVG/1.1/DTD/svg11.dtd">

<svg viewBox="0 0 390 70" width="100%" height="100%" 
  xmlns="http://www.w3.org/2000/svg"
  xmlns:xlink="http://www.w3.org/1999/xlink">


<g transform="translate(0 0)">
<rect x="0" y="0" width="70" height="70" fill="#fff"/>
<defs>
<clipPath id="clipper">
<rect width="70" height="70"/>
</clipPath>
</defs>
<g clip-path="url(#clipper)">
<rect x="20" y="0" width="10" height="10" fill="#ea3afa" style="stroke:#ea3afa; stroke-width:3"/>
<rect x="40" y="0" width="10" height="10" fill="#ea3afa" style="stroke:#ea3afa; stroke-width:3"/>
<rect x="20" y="60" width="10" height="10" fill="#ea3afa" style="stroke:#ea3afa; stroke-width:3"/>
<rect x="40" y="60" width="10" height="10" fill="#ea3afa" style="stroke:#ea3afa; stroke-width:3"/>
<rect x="10" y="10" width="10" height="10" fill="#ea3afa" style="stroke:#ea3afa; stroke-width:3"/>
<rect x="50" y="10" width="10" height="10" fill="#ea3afa" style="stroke:#ea3afa; stroke-width:3"/>
<rect x="10" y="50" width="10" height="10" fill="#ea3afa" style="stroke:#ea3afa; stroke-width:3"/>
<rect x="50" y="50" width="10" height="10" fill="#ea3afa" style="stroke:#ea3afa; stroke-width:3"/>
<rect x="20" y="10" width="10" height="10" fill="#ea3afa" style="stroke:#ea3afa; stroke-width:3"/>
<rect x="40" y="10" width="10" height="10" fill="#ea3afa" style="stroke:#ea3afa; stroke-width:3"/>
<rect x="20" y="50" width="10" height="10" fill="#ea3afa" style="stroke:#ea3afa; stroke-width:3"/>
<rect x="40" y="50" width="10" height="10" fill="#ea3afa" style="stroke:#ea3afa; stroke-width:3"/>
<rect x="30" y="10" width="10" height="10" fill="#ea3afa" style="stroke:#ea3afa; stroke-width:3"/>
<rect x="30" y="50" width="10" height="10" fill="#ea3afa" style="stroke:#ea3afa; stroke-width:3"/>
<rect x="0" y="20" width="10" height="10" fill="#ea3afa" style="stroke:#ea3afa; stroke-width:3"/>
<rect x="60" y="20" width="10" height="10" fill="#ea3afa" style="stroke:#ea3afa; stroke-width:3"/>
<rect x="0" y="40" width="10" height="10" fill="#ea3afa" style="stroke:#ea3afa; stroke-width:3"/>
<rect x="60" y="40" width="10" height="10" fill="#ea3afa" style="stroke:#ea3afa; stroke-width:3"/>
<rect x="10" y="20" width="10" height="10" fill="#ea3afa" style="stroke:#ea3afa; stroke-width:3"/>
<rect x="50" y="20" width="10" height="10" fill="#ea3afa" style="stroke:#ea3afa; stroke-width:3"/>
<rect x="10" y="40" width="10" height="10" fill="#ea3afa" style="stroke:#ea3afa; stroke-width:3"/>
<rect x="50" y="40" width="10" height="10" fill="#ea3afa" style="stroke:#ea3afa; stroke-width:3"/>
<rect x="20" y="20" width="10" height="10" fill="#ea3afa" style="stroke:#ea3afa; stroke-width:3"/>
<rect x="40" y="20" width="10" height="10" fill="#ea3afa" style="stroke:#ea3afa; stroke-width:3"/>
<rect x="20" y="40" width="10" height="10" fill="#ea3afa" style="stroke:#ea3afa; stroke-width:3"/>
<rect x="40" y="40" width="10" height="10" fill="#ea3afa" style="stroke:#ea3afa; stroke-width:3"/>
<rect x="30" y="20" width="10" height="10" fill="#ea3afa" style="stroke:#ea3afa; stroke-width:3"/>
<rect x="30" y="40" width="10" height="10" fill="#ea3afa" style="stroke:#ea3afa; stroke-width:3"/>
<rect x="0" y="30" width="10" height="10" fill="#ea3afa" style="stroke:#ea3afa; stroke-width:3"/>
<rect x="60" y="30" width="10" height="10" fill="#ea3afa" style="stroke:#ea3afa; stroke-width:3"/>
<rect x="20" y="30" width="10" height="10" fill="#ea3afa" style="stroke:#ea3afa; stroke-width:3"/>
<rect x="40" y="30" width="10" height="10" fill="#ea3afa" style="stroke:#ea3afa; stroke-width:3"/>
</g>
</g>
<g transform="translate(80 0)">
<rect x="0" y="0" width="70" height="70" fill="#fff"/>
<defs>
<clipPath id="clipper">
<rect width="70" height="70"/>
</clipPath>
</defs>
<g clip-path="url(#clipper)">
<rect x="0" y="0" width="10" height="10" fill="#c94d32" style="stroke:#c94d32; stroke-width:3"/>
<rect x="60" y="0" width="10" height="10" fill="#c94d32" style="stroke:#c94d32; stroke-width:3"/>
<rect x="0" y="60" width="10" height="10" fill="#c94d32" style="stroke:#c94d32; stroke-width:3"/>
<rect x="60" y="60" width="10" height="10" fill="#c94d32" style="stroke:#c94d32; stroke-width:3"/>
<rect x="10" y="0" width="10" height="10" fill="#c94d32" style="stroke:#c94d32; stroke-width:3"/>
<rect x="50" y="0" width="10" height="10" fill="#c94d32" style="stroke:#c94d32; stroke-width:3"/>
<rect x="10" y="60" width="10" height="10" fill="#c94d32" style="stroke:#c94d32; stroke-width:3"/>
<rect x="50" y="60" width="10" height="10" fill="#c94d32" style="stroke:#c94d32; stroke-width:3"/>
<rect x="0" y="10" width="10" height="10" fill="#c94d32" style="stroke:#c94d32; stroke-width:3"/>
<rect x="60" y="10" width="10" height="10" fill="#c94d32" style="stroke:#c94d32; stroke-width:3"/>
<rect x="0" y="50" width="10" height="10" fill="#c94d32" style="stroke:#c94d32; stroke-width:3"/>
<rect x="60" y="50" width="10" height="10" fill="#c94d32" style="stroke:#c94d32; stroke-width:3"/>
<rect x="10" y="10" width="10" height="10" fill="#c94d32" style="stroke:#c94d32; stroke-width:3"/>
<rect x="50" y="10" width="10" height="10" fill="#c94d32" style="stroke:#c94d32; stroke-width:3"/>
<rect x="10" y="50" width="10" height="10" fill="#c94d32" style="stroke:#c94d32; stroke-width:3"/>
<rect x="50" y="50" width="10" height="10" fill="#c94d32" style="stroke:#c94d32; stroke-width:3"/>
<rect x="30" y="20" width="10" height="10" fill="#c94d32" style="stroke:#c94d32; stroke-width:3"/>
<rect x="30" y="40" width="10" height="10" fill="#c94d32" style="stroke:#c94d32; stroke-width:3"/>
<rect x="20" y="30" width="10" height="10" fill="#c94d32" style="stroke:#c94d32; stroke-width:3"/>
<rect x="40" y="30" width="10" height="10" fill="#c94d32" style="stroke:#c94d32; stroke-width:3"/>
</g>
</g>
<g transform="translate(160 0)">
<rect x="0" y="0" width="70" height="70" fill="#fff"/>
<defs>
<clipPath id="clipper">
<rect width="70" height="70"/>
</clipPath>
</defs>
<g clip-path="url(#clipper)">
<rect x="20" y="0" width="10" height="10" fill="#7020a5" style="stroke:#7020a5; stroke-width:3"/>
<rect x="40" y="0" width="10" height="10" fill="#7020a5" style="stroke:#7020a5; stroke-width:3"/>
<rect x="20" y="60" width="10" height="10" fill="#7020a5" style="stroke:#7020a5; stroke-width:3"/>
<rect x="40" y="60" width="10" height="10" fill="#7020a5" style="stroke:#7020a5; stroke-width:3"/>
<rect x="30" y="0" width="10" height="10" fill="#7020a5" style="stroke:#7020a5; stroke-width:3"/>
<rect x="30" y="60" width="10" height="10" fill="#7020a5" style="stroke:#7020a5; stroke-width:3"/>
<rect x="0" y="10" width="10" height="10" fill="#7020a5" style="stroke:#7020a5; stroke-width:3"/>
<rect x="60" y="10" width="10" height="10" fill="#7020a5" style="stroke:#7020a5; stroke-width:3"/>
<rect x="0" y="50" width="10" height="10" fill="#7020a5" style="stroke:#7020a5; stroke-width:3"/>
<rect x="60" y="50" width="10" height="10" fill="#7020a5" style="stroke:#7020a5; stroke-width:3"/>
<rect x="10" y="20" width="10" height="10" fill="#7020a5" style="stroke:#7020a5; stroke-width:3"/>
<rect x="50" y="20" width="10" height="10" fill="#7020a5" style="stroke:#7020a5; stroke-width:3"/>
<rect x="10" y="40" width="10" height="10" fill="#7020a5" style="stroke:#7020a5; stroke-width:3"/>
<rect x="50" y="40" width="10" height="10" fill="#7020a5" style="stroke:#7020a5; stroke-width:3"/>
<rect x="0" y="30" width="10" height="10" fill="#7020a5" style="stroke:#7020a5; stroke-width:3"/>
<rect x="60" y="30" width="10" height="10" fill="#7020a5" style="stroke:#7020a5; stroke-width:3"/>
<rect x="20" y="30" width="10" height="10" fill="#7020a5" style="stroke:#7020a5; stroke-width:3"/>
<rect x="40" y="30" width="10" height="10" fill="#7020a5" style="stroke:#7020a5; stroke-width:3"/>
<rect x="30" y="30" width="10" height="10" fill="#7020a5" style="stroke:#7020a5; stroke-width:3"/>
</g>
</g>
<g transform="translate(240 0)">
<rect x="0" y="0" width="70" height="70" fill="#fff"/>
<defs>
<clipPath id="clipper">
<rect width="70" height="70"/>
</clipPath>
</defs>
<g clip-path="url(#clipper)">
<rect x="0" y="0" width="10" height="10" fill="#c6f093" style="stroke:#c6f093; stroke-width:3"/>
<rect x="60" y="0" width="10" height="10" fill="#c6f093" style="stroke:#c6f093; stroke-width:3"/>
<rect x="0" y="60" width="10" height="10" fill="#c6f093" style="stroke:#c6f093; stroke-width:3"/>
<rect x="60" y="60" width="10" height="10" fill="#c6f093" style="stroke:#c6f093; stroke-width:3"/>
<rect x="10" y="0" width="10" height="10" fill="#c6f093" style="stroke:#c6f093; stroke-width:3"/>
<rect x="50" y="0" width="10" height="10" fill="#c6f093" style="stroke:#c6f093; stroke-width:3"/>
<rect x="10" y="60" width="10" height="10" fill="#c6f093" style="stroke:#c6f093; stroke-width:3"/>
<rect x="50" y="60" width="10" height="10" fill="#c6f093" style="stroke:#c6f093; stroke-width:3"/>
<rect x="20" y="0" width="10" height="10" fill="#c6f093" style="stroke:#c6f093; stroke-width:3"/>
<rect x="40" y="0" width="10" height="10" fill="#c6f093" style="stroke:#c6f093; stroke-width:3"/>
<rect x="20" y="60" width="10" height="10" fill="#c6f093" style="stroke:#c6f093; stroke-width:3"/>
<rect x="40" y="60" width="10" height="10" fill="#c6f093" style="stroke:#c6f093; stroke-width:3"/>
<rect x="30" y="0" width="10" height="10" fill="#c6f093" style="stroke:#c6f093; stroke-width:3"/>
<rect x="30" y="60" width="10" height="10" fill="#c6f093" style="stroke:#c6f093; stroke-width:3"/>
<rect x="0" y="10" width="10" height="10" fill="#c6f093" style="stroke:#c6f093; stroke-width:3"/>
<rect x="60" y="10" width="10" height="10" fill="#c6f093" style="stroke:#c6f093; stroke-width:3"/>
<rect x="0" y="50" width="10" height="10" fill="#c6f093" style="stroke:#c6f093; stroke-width:3"/>
<rect x="60" y="50" width="10" height="10" fill="#c6f093" style="stroke:#c6f093; stroke-width:3"/>
<rect x="10" y="10" width="10" height="10" fill="#c6f093" style="stroke:#c6f093; stroke-width:3"/>
<rect x="50" y="10" width="10" height="10" fill="#c6f093" style="stroke:#c6f093; stroke-width:3"/>
<rect x="10" y="50" width="10" height="10" fill="#c6f093" style="stroke:#c6f093; stroke-width:3"/>
<rect x="50" y="50" width="10" height="10" fill="#c6f093" style="stroke:#c6f093; stroke-width:3"/>
<rect x="20" y="10" width="10" height="10" fill="#c6f093" style="stroke:#c6f093; stroke-width:3"/>
<rect x="40" y="10" width="10" height="10" fill="#c6f093" style="stroke:#c6f093; stroke-width:3"/>
<rect x="20" y="50" width="10" height="10" fill="#c6f093" style="stroke:#c6f093; stroke-width:3"/>
<rect x="40" y="50" width="10" height="10" fill="#c6f093" style="stroke:#c6f093; stroke-width:3"/>
<rect x="30" y="10" width="10" height="10" fill="#c6f093" style="stroke:#c6f093; stroke-width:3"/>
<rect x="30" y="50" width="10" height="10" fill="#c6f093" style="stroke:#c6f093; stroke-width:3"/>
<rect x="10" y="20" width="10" height="10" fill="#c6f093" style="stroke:#c6f093; stroke-width:3"/>
<rect x="50" y="20" width="10" height="10" fill="#c6f093" style="stroke:#c6f093; stroke-width:3"/>
<rect x="10" y="40" width="10" height="10" fill="#c6f093" style="stroke:#c6f093; stroke-width:3"/>
<rect x="50" y="40" width="10" height="10" fill="#c6f093" style="stroke:#c6f093; stroke-width:3"/>
<rect x="20" y="20" width="10" height="10" fill="#c6f093" style="stroke:#c6f093; stroke-width:3"/>
<rect x="40" y="20" width="10" height="10" fill="#c6f093" style="stroke:#c6f093; stroke-width:3"/>
<rect x="20" y="40" width="10" height="10" fill="#c6f093" style="stroke:#c6f093; stroke-width:3"/>
<rect x="40" y="40" width="10" height="10" fill="#c6f093" style="stroke:#c6f093; stroke-width:3"/>
<rect x="30" y="20" width="10" height="10" fill="#c6f093" style="stroke:#c6f093; stroke-width:3"/>
<rect x="30" y="40" width="10" height="10" fill="#c6f093" style="stroke:#c6f093; stroke-width:3"/>
<rect x="20" y="30" width="10" height="10" fill="#c6f093" style="stroke:#c6f093; stroke-width:3"/>
<rect x="40" y="30" width="10" height="10" fill="#c6f093" style="stroke:#c6f093; stroke-width:3"/>
<rect x="30" y="30" width="10" height="10" fill="#c6f093" style="stroke:#c6f093; stroke-width:3"/>
</g>
</g>
<g transform="translate(320 0)">
<rect x="0" y="0" width="70" height="70" fill="#fff"/>
<defs>
<clipPath id="clipper">
<rect width="70" height="70"/>
</clipPath>
</defs>
<g clip-path="url(#clipper)">
<rect x="10" y="0" width="10" height="10" fill="#284853" style="stroke:#284853; stroke-width:3"/>
<rect x="50" y="0" width="10" height="10" fill="#284853" style="stroke:#284853; stroke-width:3"/>
<rect x="10" y="60" width="10" height="10" fill="#284853" style="stroke:#284853; stroke-width:3"/>
<rect x="50" y="60" width="10" height="10" fill="#284853" style="stroke:#284853; stroke-width:3"/>
<rect x="20" y="0" width="10" height="10" fill="#284853" style="stroke:#284853; stroke-width:3"/>
<rect x="40" y="0" width="10" height="10" fill="#284853" style="stroke:#284853; stroke-width:3"/>
<rect x="20" y="60" width="10" height="10" fill="#284853" style="stroke:#284853; stroke-width:3"/>
<rect x="40" y="60" width="10" height="10" fill="#284853" style="stroke:#284853; stroke-width:3"/>
<rect x="20" y="10" width="10" height="10" fill="#284853" style="stroke:#284853; stroke-width:3"/>
<rect x="40" y="10" width="10" height="10" fill="#284853" style="stroke:#284853; stroke-width:3"/>
<rect x="20" y="50" width="10" height="10" fill="#284853" style="stroke:#284853; stroke-width:3"/>
<rect x="40" y="50" width="10" height="10" fill="#284853" style="stroke:#284853; stroke-width:3"/>
<rect x="30" y="10" width="10" height="10" fill="#284853" style="stroke:#284853; stroke-width:3"/>
<rect x="30" y="50" width="10" height="10" fill="#284853" style="stroke:#284853; stroke-width:3"/>
<rect x="0" y="20" width="10" height="10" fill="#284853" style="stroke:#284853; stroke-width:3"/>
<rect x="60" y="20" width="10" height="10" fill="#284853" style="stroke:#284853; stroke-width:3"/>
<rect x="0" y="40" width="10" height="10" fill="#284853" style="stroke:#284853; stroke-width:3"/>
<rect x="60" y="40" width="10" height="10" fill="#284853" style="stroke:#284853; stroke-width:3"/>
<rect x="20" y="30" width="10" height="10" fill="#284853" style="stroke:#284853; stroke-width:3"/>
<rect x="40" y="30" width="10" height="10" fill="#284853" style="stroke:#284853; stroke-width:3"/>
<rect x="30" y="30" width="10" height="10" fill="#284853" style="stroke:#284853; stroke-width:3"/>
</g>
</g>

</svg>