<?xml version="1.0" standalone="no"?>
<!DOCTYPE svg PUBLIC "-//W3C//DTD SVG 1.1//EN" "http://www.w3.org/Graphics/SVG/1.1/DTD/svg11.dtd">

<svg viewBox="0 0 390 70" width="100%" height="100%" 
  xmlns="http://www.w3.org/2000/svg"
  xmlns:xlink="http://www.w3.org/1999/xlink">


<g transform="translate(0 0)">
<rect x="0" y="0" width="70" height="70" fill="#fff"/>
<defs>
<clipPath id="clipper">
<rect width="70" height="70"/>
</clipPath>
</defs>
<g clip-path="url(#clipper)">
<rect x="10" y="0" width="10" height="10" fill="#f1de59" style="stroke:#f1de59; stroke-width:2"/>
<rect x="50" y="0" width="10" height="10" fill="#f1de59" style="stroke:#f1de59; stroke-width:2"/>
<rect x="20" y="0" width="10" height="10" fill="#f1de59" style="stroke:#f1de59; stroke-width:2"/>
<rect x="40" y="0" width="10" height="10" fill="#f1de59" style="stroke:#f1de59; stroke-width:2"/>
<rect x="30" y="0" width="10" height="10" fill="#f1de59" style="stroke:#f1de59; stroke-width:2"/>
<rect x="0" y="10" width="10" height="10" fill="#f1de59" style="stroke:#f1de59; stroke-width:2"/>
<rect x="60" y="10" width="10" height="10" fill="#f1de59" style="stroke:#f1de59; stroke-width:2"/>
<rect x="20" y="10" width="10" height="10" fill="#f1de59" style="stroke:#f1de59; stroke-width:2"/>
<rect x="40" y="10" width="10" height="10" fill="#f1de59" style="stroke:#f1de59; stroke-width:2"/>
<rect x="0" y="20" width="10" height="10" fill="#f1de59" style="stroke:#f1de59; stroke-width:2"/>
<rect x="60" y="20" width="10" height="10" fill="#f1de59" style="stroke:#f1de59; stroke-width:2"/>
<rect x="20" y="20" width="10" height="10" fill="#f1de59" style="stroke:#f1de59; stroke-width:2"/>
<rect x="40" y="20" width="10" height="10" fill="#f1de59" style="stroke:#f1de59; stroke-width:2"/>
<rect x="0" y="30" width="10" height="10" fill="#f1de59" style="stroke:#f1de59; stroke-width:2"/>
<rect x="60" y="30" width="10" height="10" fill="#f1de59" style="stroke:#f1de59; stroke-width:2"/>
<rect x="0" y="40" width="10" height="10" fill="#f1de59" style="stroke:#f1de59; stroke-width:2"/>
<rect x="60" y="40" width="10" height="10" fill="#f1de59" style="stroke:#f1de59; stroke-width:2"/>
<rect x="10" y="40" width="10" height="10" fill="#f1de59" style="stroke:#f1de59; stroke-width:2"/>
<rect x="50" y="40" width="10" height="10" fill="#f1de59" style="stroke:#f1de59; stroke-width:2"/>
<rect x="30" y="40" width="10" height="10" fill="#f1de59" style="stroke:#f1de59; stroke-width:2"/>
<rect x="0" y="50" width="10" height="10" fill="#f1de59" style="stroke:#f1de59; stroke-width:2"/>
<rect x="60" y="50" width="10" height="10" fill="#f1de59" style="stroke:#f1de59; stroke-width:2"/>
<rect x="30" y="50" width="10" height="10" fill="#f1de59" style="stroke:#f1de59; stroke-width:2"/>
<rect x="10" y="60" width="10" height="10" fill="#f1de59" style="stroke:#f1de59; stroke-width:2"/>
<rect x="50" y="60" width="10" height="10" fill="#f1de59" style="stroke:#f1de59; stroke-width:2"/>
<rect x="20" y="60" width="10" height="10" fill="#f1de59" style="stroke:#f1de59; stroke-width:2"/>
<rect x="40" y="60" width="10" height="10" fill="#f1de59" style="stroke:#f1de59; stroke-width:2"/>
<rect x="30" y="60" width="10" height="10" fill="#f1de59" style="stroke:#f1de59; stroke-width:2"/>
</g>
</g>
<g transform="translate(80 0)">
<rect x="0" y="0" width="70" height="70" fill="#fff"/>
<defs>
<clipPath id="clipper">
<rect width="70" height="70"/>
</clipPath>
</defs>
<g clip-path="url(#clipper)">
<rect x="10" y="0" width="10" height="10" fill="#f1de59" style="stroke:#f1de59; stroke-width:2"/>
<rect x="50" y="0" width="10" height="10" fill="#f1de59" style="stroke:#f1de59; stroke-width:2"/>
<rect x="20" y="0" width="10" height="10" fill="#f1de59" style="stroke:#f1de59; stroke-width:2"/>
<rect x="40" y="0" width="10" height="10" fill="#f1de59" style="stroke:#f1de59; stroke-width:2"/>
<rect x="30" y="0" width="10" height="10" fill="#f1de59" style="stroke:#f1de59; stroke-width:2"/>
<rect x="0" y="10" width="10" height="10" fill="#f1de59" style="stroke:#f1de59; stroke-width:2"/>
<rect x="60" y="10" width="10" height="10" fill="#f1de59" style="stroke:#f1de59; stroke-width:2"/>
<rect x="15.0" y="5.0" width="10" height="10" fill="#f1de59" style="stroke:#f1de59; stroke-width:2"/>
<rect x="45.0" y="5.0" width="10" height="10" fill="#f1de59" style="stroke:#f1de59; stroke-width:2"/>
<rect x="0" y="20" width="10" height="10" fill="#f1de59" style="stroke:#f1de59; stroke-width:2"/>
<rect x="60" y="20" width="10" height="10" fill="#f1de59" style="stroke:#f1de59; stroke-width:2"/>
<rect x="20" y="20" width="10" height="10" fill="#f1de59" style="stroke:#f1de59; stroke-width:2"/>
<rect x="40" y="20" width="10" height="10" fill="#f1de59" style="stroke:#f1de59; stroke-width:2"/>
<rect x="0" y="30" width="10" height="10" fill="#f1de59" style="stroke:#f1de59; stroke-width:2"/>
<rect x="60" y="30" width="10" height="10" fill="#f1de59" style="stroke:#f1de59; stroke-width:2"/>
<rect x="0" y="40" width="10" height="10" fill="#f1de59" style="stroke:#f1de59; stroke-width:2"/>
<rect x="60" y="40" width="10" height="10" fill="#f1de59" style="stroke:#f1de59; stroke-width:2"/>
<rect x="10" y="40" width="10" height="10" fill="#f1de59" style="stroke:#f1de59; stroke-width:2"/>
<rect x="50" y="40" width="10" height="10" fill="#f1de59" style="stroke:#f1de59; stroke-width:2"/>
<rect x="30" y="40" width="10" height="10" fill="#f1de59" style="stroke:#f1de59; stroke-width:2"/>
<rect x="0" y="50" width="10" height="10" fill="#f1de59" style="stroke:#f1de59; stroke-width:2"/>
<rect x="60" y="50" width="10" height="10" fill="#f1de59" style="stroke:#f1de59; stroke-width:2"/>
<rect x="30" y="50" width="10" height="10" fill="#f1de59" style="stroke:#f1de59; stroke-width:2"/>
<rect x="10" y="60" width="10" height="10" fill="#f1de59" style="stroke:#f1de59; stroke-width:2"/>
<rect x="50" y="60" width="10" height="10" fill="#f1de59" style="stroke:#f1de59; stroke-width:2"/>
<rect x="20" y="60" width="10" height="10" fill="#f1de59" style="stroke:#f1de59; stroke-width:2"/>
<rect x="40" y="60" width="10" height="10" fill="#f1de59" style="stroke:#f1de59; stroke-width:2"/>
<rect x="30" y="55.0" width="10" height="10" fill="#f1de59" style="stroke:#f1de59; stroke-width:2"/>
</g>
</g>
<g transform="translate(160 0)">
<rect x="0" y="0" width="70" height="70" fill="#fff"/>
<defs>
<clipPath id="clipper">
<rect width="70" height="70"/>
</clipPath>
</defs>
<g clip-path="url(#clipper)">
<rect x="10" y="0" width="10" height="10" fill="#f1de59" style="stroke:#f1de59; stroke-width:2"/>
<rect x="50" y="0" width="10" height="10" fill="#f1de59" style="stroke:#f1de59; stroke-width:2"/>
<rect x="15.0" y="5.0" width="10" height="10" fill="#f1de59" style="stroke:#f1de59; stroke-width:2"/>
<rect x="45.0" y="5.0" width="10" height="10" fill="#f1de59" style="stroke:#f1de59; stroke-width:2"/>
<rect x="30" y="0" width="10" height="10" fill="#f1de59" style="stroke:#f1de59; stroke-width:2"/>
<rect x="0" y="10" width="10" height="10" fill="#f1de59" style="stroke:#f1de59; stroke-width:2"/>
<rect x="60" y="10" width="10" height="10" fill="#f1de59" style="stroke:#f1de59; stroke-width:2"/>
<rect x="15.0" y="5.0" width="10" height="10" fill="#f1de59" style="stroke:#f1de59; stroke-width:2"/>
<rect x="45.0" y="5.0" width="10" height="10" fill="#f1de59" style="stroke:#f1de59; stroke-width:2"/>
<rect x="0" y="20" width="10" height="10" fill="#f1de59" style="stroke:#f1de59; stroke-width:2"/>
<rect x="60" y="20" width="10" height="10" fill="#f1de59" style="stroke:#f1de59; stroke-width:2"/>
<rect x="20" y="20" width="10" height="10" fill="#f1de59" style="stroke:#f1de59; stroke-width:2"/>
<rect x="40" y="20" width="10" height="10" fill="#f1de59" style="stroke:#f1de59; stroke-width:2"/>
<rect x="5.0" y="30" width="10" height="10" fill="#f1de59" style="stroke:#f1de59; stroke-width:2"/>
<rect x="55.0" y="30" width="10" height="10" fill="#f1de59" style="stroke:#f1de59; stroke-width:2"/>
<rect x="0" y="35.0" width="10" height="10" fill="#f1de59" style="stroke:#f1de59; stroke-width:2"/>
<rect x="60" y="35.0" width="10" height="10" fill="#f1de59" style="stroke:#f1de59; stroke-width:2"/>
<rect x="10" y="40" width="10" height="10" fill="#f1de59" style="stroke:#f1de59; stroke-width:2"/>
<rect x="50" y="40" width="10" height="10" fill="#f1de59" style="stroke:#f1de59; stroke-width:2"/>
<rect x="30" y="35.0" width="10" height="10" fill="#f1de59" style="stroke:#f1de59; stroke-width:2"/>
<rect x="0" y="50" width="10" height="10" fill="#f1de59" style="stroke:#f1de59; stroke-width:2"/>
<rect x="60" y="50" width="10" height="10" fill="#f1de59" style="stroke:#f1de59; stroke-width:2"/>
<rect x="30" y="45.0" width="10" height="10" fill="#f1de59" style="stroke:#f1de59; stroke-width:2"/>
<rect x="10" y="55.0" width="10" height="10" fill="#f1de59" style="stroke:#f1de59; stroke-width:2"/>
<rect x="50" y="55.0" width="10" height="10" fill="#f1de59" style="stroke:#f1de59; stroke-width:2"/>
<rect x="20" y="60" width="10" height="10" fill="#f1de59" style="stroke:#f1de59; stroke-width:2"/>
<rect x="40" y="60" width="10" height="10" fill="#f1de59" style="stroke:#f1de59; stroke-width:2"/>
<rect x="30" y="60" width="10" height="10" fill="#f1de59" style="stroke:#f1de59; stroke-width:2"/>
</g>
</g>
<g transform="translate(240 0)">
<rect x="0" y="0" width="70" height="70" fill="#fff"/>
<defs>
<clipPath id="clipper">
<rect width="70" height="70"/>
</clipPath>
</defs>
<g clip-path="url(#clipper)">
<rect x="10" y="0" width="10" height="10" fill="#f1de59" style="stroke:#f1de59; stroke-width:2"/>
<rect x="50" y="0" width="10" height="10" fill="#f1de59" style="stroke:#f1de59; stroke-width:2"/>
<rect x="15.0" y="5.0" width="10" height="10" fill="#f1de59" style="stroke:#f1de59; stroke-width:2"/>
<rect x="45.0" y="5.0" width="10" height="10" fill="#f1de59" style="stroke:#f1de59; stroke-width:2"/>
<rect x="30" y="0" width="10" height="10" fill="#f1de59" style="stroke:#f1de59; stroke-width:2"/>
<rect x="0" y="10" width="10" height="10" fill="#f1de59" style="stroke:#f1de59; stroke-width:2"/>
<rect x="60" y="10" width="10" height="10" fill="#f1de59" style="stroke:#f1de59; stroke-width:2"/>
<rect x="15.0" y="5.0" width="10" height="10" fill="#f1de59" style="stroke:#f1de59; stroke-width:2"/>
<rect x="45.0" y="5.0" width="10" height="10" fill="#f1de59" style="stroke:#f1de59; stroke-width:2"/>
<rect x="-5.0" y="25.0" width="10" height="10" fill="#f1de59" style="stroke:#f1de59; stroke-width:2"/>
<rect x="65.0" y="25.0" width="10" height="10" fill="#f1de59" style="stroke:#f1de59; stroke-width:2"/>
<rect x="25.0" y="20" width="10" height="10" fill="#f1de59" style="stroke:#f1de59; stroke-width:2"/>
<rect x="35.0" y="20" width="10" height="10" fill="#f1de59" style="stroke:#f1de59; stroke-width:2"/>
<rect x="0" y="25.0" width="10" height="10" fill="#f1de59" style="stroke:#f1de59; stroke-width:2"/>
<rect x="60" y="25.0" width="10" height="10" fill="#f1de59" style="stroke:#f1de59; stroke-width:2"/>
<rect x="0" y="40" width="10" height="10" fill="#f1de59" style="stroke:#f1de59; stroke-width:2"/>
<rect x="60" y="40" width="10" height="10" fill="#f1de59" style="stroke:#f1de59; stroke-width:2"/>
<rect x="5.0" y="40" width="10" height="10" fill="#f1de59" style="stroke:#f1de59; stroke-width:2"/>
<rect x="55.0" y="40" width="10" height="10" fill="#f1de59" style="stroke:#f1de59; stroke-width:2"/>
<rect x="30" y="40" width="10" height="10" fill="#f1de59" style="stroke:#f1de59; stroke-width:2"/>
<rect x="5.0" y="50" width="10" height="10" fill="#f1de59" style="stroke:#f1de59; stroke-width:2"/>
<rect x="55.0" y="50" width="10" height="10" fill="#f1de59" style="stroke:#f1de59; stroke-width:2"/>
<rect x="30" y="55.0" width="10" height="10" fill="#f1de59" style="stroke:#f1de59; stroke-width:2"/>
<rect x="5.0" y="65.0" width="10" height="10" fill="#f1de59" style="stroke:#f1de59; stroke-width:2"/>
<rect x="55.0" y="65.0" width="10" height="10" fill="#f1de59" style="stroke:#f1de59; stroke-width:2"/>
<rect x="20" y="60" width="10" height="10" fill="#f1de59" style="stroke:#f1de59; stroke-width:2"/>
<rect x="40" y="60" width="10" height="10" fill="#f1de59" style="stroke:#f1de59; stroke-width:2"/>
<rect x="30" y="55.0" width="10" height="10" fill="#f1de59" style="stroke:#f1de59; stroke-width:2"/>
</g>
</g>
<g transform="translate(320 0)">
<rect x="0" y="0" width="70" height="70" fill="#fff"/>
<defs>
<clipPath id="clipper">
<rect width="70" height="70"/>
</clipPath>
</defs>
<g clip-path="url(#clipper)">
<rect x="10" y="0" width="10" height="10" fill="#f1de59" style="stroke:#f1de59; stroke-width:2"/>
<rect x="50" y="0" width="10" height="10" fill="#f1de59" style="stroke:#f1de59; stroke-width:2"/>
<rect x="15.0" y="5.0" width="10" height="10" fill="#f1de59" style="stroke:#f1de59; stroke-width:2"/>
<rect x="45.0" y="5.0" width="10" height="10" fill="#f1de59" style="stroke:#f1de59; stroke-width:2"/>
<rect x="30" y="0" width="10" height="10" fill="#f1de59" style="stroke:#f1de59; stroke-width:2"/>
<rect x="0" y="15.0" width="10" height="10" fill="#f1de59" style="stroke:#f1de59; stroke-width:2"/>
<rect x="60" y="15.0" width="10" height="10" fill="#f1de59" style="stroke:#f1de59; stroke-width:2"/>
<rect x="20" y="10" width="10" height="10" fill="#f1de59" style="stroke:#f1de59; stroke-width:2"/>
<rect x="40" y="10" width="10" height="10" fill="#f1de59" style="stroke:#f1de59; stroke-width:2"/>
<rect x="-5.0" y="25.0" width="10" height="10" fill="#f1de59" style="stroke:#f1de59; stroke-width:2"/>
<rect x="65.0" y="25.0" width="10" height="10" fill="#f1de59" style="stroke:#f1de59; stroke-width:2"/>
<rect x="25.0" y="20" width="10" height="10" fill="#f1de59" style="stroke:#f1de59; stroke-width:2"/>
<rect x="35.0" y="20" width="10" height="10" fill="#f1de59" style="stroke:#f1de59; stroke-width:2"/>
<rect x="0" y="25.0" width="10" height="10" fill="#f1de59" style="stroke:#f1de59; stroke-width:2"/>
<rect x="60" y="25.0" width="10" height="10" fill="#f1de59" style="stroke:#f1de59; stroke-width:2"/>
<rect x="0" y="35.0" width="10" height="10" fill="#f1de59" style="stroke:#f1de59; stroke-width:2"/>
<rect x="60" y="35.0" width="10" height="10" fill="#f1de59" style="stroke:#f1de59; stroke-width:2"/>
<rect x="5.0" y="35.0" width="10" height="10" fill="#f1de59" style="stroke:#f1de59; stroke-width:2"/>
<rect x="55.0" y="35.0" width="10" height="10" fill="#f1de59" style="stroke:#f1de59; stroke-width:2"/>
<rect x="30" y="40" width="10" height="10" fill="#f1de59" style="stroke:#f1de59; stroke-width:2"/>
<rect x="0" y="50" width="10" height="10" fill="#f1de59" style="stroke:#f1de59; stroke-width:2"/>
<rect x="60" y="50" width="10" height="10" fill="#f1de59" style="stroke:#f1de59; stroke-width:2"/>
<rect x="30" y="55.0" width="10" height="10" fill="#f1de59" style="stroke:#f1de59; stroke-width:2"/>
<rect x="10" y="60" width="10" height="10" fill="#f1de59" style="stroke:#f1de59; stroke-width:2"/>
<rect x="50" y="60" width="10" height="10" fill="#f1de59" style="stroke:#f1de59; stroke-width:2"/>
<rect x="15.0" y="60" width="10" height="10" fill="#f1de59" style="stroke:#f1de59; stroke-width:2"/>
<rect x="45.0" y="60" width="10" height="10" fill="#f1de59" style="stroke:#f1de59; stroke-width:2"/>
<rect x="30" y="60" width="10" height="10" fill="#f1de59" style="stroke:#f1de59; stroke-width:2"/>
</g>
</g>

</svg>