<?xml version="1.0" standalone="no"?>
<!DOCTYPE svg PUBLIC "-//W3C//DTD SVG 1.1//EN" "http://www.w3.org/Graphics/SVG/1.1/DTD/svg11.dtd">

<svg viewBox="0 0 440 80" width="100%" height="100%" 
  xmlns="http://www.w3.org/2000/svg"
  xmlns:xlink="http://www.w3.org/1999/xlink">


<g transform="translate(0 0)">
<rect x="0" y="0" width="80" height="80" fill="#fff"/>
<defs>
<clipPath id="clipper">
<rect width="80" height="80"/>
</clipPath>
</defs>
<g clip-path="url(#clipper)">
<rect x="0" y="10" width="10" height="10" fill="#0ba974" style="stroke:#0ba974; stroke-width:7"/>
<rect x="70" y="10" width="10" height="10" fill="#0ba974" style="stroke:#0ba974; stroke-width:7"/>
<rect x="20" y="10" width="10" height="10" fill="#0ba974" style="stroke:#0ba974; stroke-width:7"/>
<rect x="50" y="10" width="10" height="10" fill="#0ba974" style="stroke:#0ba974; stroke-width:7"/>
<rect x="20" y="30" width="10" height="10" fill="#0ba974" style="stroke:#0ba974; stroke-width:7"/>
<rect x="50" y="30" width="10" height="10" fill="#0ba974" style="stroke:#0ba974; stroke-width:7"/>
<rect x="30" y="30" width="10" height="10" fill="#0ba974" style="stroke:#0ba974; stroke-width:7"/>
<rect x="40" y="30" width="10" height="10" fill="#0ba974" style="stroke:#0ba974; stroke-width:7"/>
<rect x="0" y="40" width="10" height="10" fill="#0ba974" style="stroke:#0ba974; stroke-width:7"/>
<rect x="70" y="40" width="10" height="10" fill="#0ba974" style="stroke:#0ba974; stroke-width:7"/>
<rect x="10" y="40" width="10" height="10" fill="#0ba974" style="stroke:#0ba974; stroke-width:7"/>
<rect x="60" y="40" width="10" height="10" fill="#0ba974" style="stroke:#0ba974; stroke-width:7"/>
<rect x="20" y="40" width="10" height="10" fill="#0ba974" style="stroke:#0ba974; stroke-width:7"/>
<rect x="50" y="40" width="10" height="10" fill="#0ba974" style="stroke:#0ba974; stroke-width:7"/>
<rect x="30" y="40" width="10" height="10" fill="#0ba974" style="stroke:#0ba974; stroke-width:7"/>
<rect x="40" y="40" width="10" height="10" fill="#0ba974" style="stroke:#0ba974; stroke-width:7"/>
<rect x="10" y="50" width="10" height="10" fill="#0ba974" style="stroke:#0ba974; stroke-width:7"/>
<rect x="60" y="50" width="10" height="10" fill="#0ba974" style="stroke:#0ba974; stroke-width:7"/>
<rect x="10" y="60" width="10" height="10" fill="#0ba974" style="stroke:#0ba974; stroke-width:7"/>
<rect x="60" y="60" width="10" height="10" fill="#0ba974" style="stroke:#0ba974; stroke-width:7"/>
<rect x="30" y="70" width="10" height="10" fill="#0ba974" style="stroke:#0ba974; stroke-width:7"/>
<rect x="40" y="70" width="10" height="10" fill="#0ba974" style="stroke:#0ba974; stroke-width:7"/>
</g>
</g>
<g transform="translate(90 0)">
<rect x="0" y="0" width="80" height="80" fill="#fff"/>
<defs>
<clipPath id="clipper">
<rect width="80" height="80"/>
</clipPath>
</defs>
<g clip-path="url(#clipper)">
<rect x="10" y="0" width="10" height="10" fill="#2155bd" style="stroke:#2155bd; stroke-width:7"/>
<rect x="60" y="0" width="10" height="10" fill="#2155bd" style="stroke:#2155bd; stroke-width:7"/>
<rect x="30" y="0" width="10" height="10" fill="#2155bd" style="stroke:#2155bd; stroke-width:7"/>
<rect x="40" y="0" width="10" height="10" fill="#2155bd" style="stroke:#2155bd; stroke-width:7"/>
<rect x="0" y="10" width="10" height="10" fill="#2155bd" style="stroke:#2155bd; stroke-width:7"/>
<rect x="70" y="10" width="10" height="10" fill="#2155bd" style="stroke:#2155bd; stroke-width:7"/>
<rect x="30" y="10" width="10" height="10" fill="#2155bd" style="stroke:#2155bd; stroke-width:7"/>
<rect x="40" y="10" width="10" height="10" fill="#2155bd" style="stroke:#2155bd; stroke-width:7"/>
<rect x="30" y="20" width="10" height="10" fill="#2155bd" style="stroke:#2155bd; stroke-width:7"/>
<rect x="40" y="20" width="10" height="10" fill="#2155bd" style="stroke:#2155bd; stroke-width:7"/>
<rect x="0" y="30" width="10" height="10" fill="#2155bd" style="stroke:#2155bd; stroke-width:7"/>
<rect x="70" y="30" width="10" height="10" fill="#2155bd" style="stroke:#2155bd; stroke-width:7"/>
<rect x="20" y="40" width="10" height="10" fill="#2155bd" style="stroke:#2155bd; stroke-width:7"/>
<rect x="50" y="40" width="10" height="10" fill="#2155bd" style="stroke:#2155bd; stroke-width:7"/>
<rect x="30" y="40" width="10" height="10" fill="#2155bd" style="stroke:#2155bd; stroke-width:7"/>
<rect x="40" y="40" width="10" height="10" fill="#2155bd" style="stroke:#2155bd; stroke-width:7"/>
<rect x="0" y="50" width="10" height="10" fill="#2155bd" style="stroke:#2155bd; stroke-width:7"/>
<rect x="70" y="50" width="10" height="10" fill="#2155bd" style="stroke:#2155bd; stroke-width:7"/>
</g>
</g>
<g transform="translate(180 0)">
<rect x="0" y="0" width="80" height="80" fill="#fff"/>
<defs>
<clipPath id="clipper">
<rect width="80" height="80"/>
</clipPath>
</defs>
<g clip-path="url(#clipper)">
<rect x="20" y="0" width="10" height="10" fill="#4178e5" style="stroke:#4178e5; stroke-width:7"/>
<rect x="50" y="0" width="10" height="10" fill="#4178e5" style="stroke:#4178e5; stroke-width:7"/>
<rect x="10" y="10" width="10" height="10" fill="#4178e5" style="stroke:#4178e5; stroke-width:7"/>
<rect x="60" y="10" width="10" height="10" fill="#4178e5" style="stroke:#4178e5; stroke-width:7"/>
<rect x="20" y="30" width="10" height="10" fill="#4178e5" style="stroke:#4178e5; stroke-width:7"/>
<rect x="50" y="30" width="10" height="10" fill="#4178e5" style="stroke:#4178e5; stroke-width:7"/>
<rect x="30" y="30" width="10" height="10" fill="#4178e5" style="stroke:#4178e5; stroke-width:7"/>
<rect x="40" y="30" width="10" height="10" fill="#4178e5" style="stroke:#4178e5; stroke-width:7"/>
<rect x="0" y="40" width="10" height="10" fill="#4178e5" style="stroke:#4178e5; stroke-width:7"/>
<rect x="70" y="40" width="10" height="10" fill="#4178e5" style="stroke:#4178e5; stroke-width:7"/>
<rect x="0" y="50" width="10" height="10" fill="#4178e5" style="stroke:#4178e5; stroke-width:7"/>
<rect x="70" y="50" width="10" height="10" fill="#4178e5" style="stroke:#4178e5; stroke-width:7"/>
<rect x="10" y="50" width="10" height="10" fill="#4178e5" style="stroke:#4178e5; stroke-width:7"/>
<rect x="60" y="50" width="10" height="10" fill="#4178e5" style="stroke:#4178e5; stroke-width:7"/>
<rect x="30" y="60" width="10" height="10" fill="#4178e5" style="stroke:#4178e5; stroke-width:7"/>
<rect x="40" y="60" width="10" height="10" fill="#4178e5" style="stroke:#4178e5; stroke-width:7"/>
</g>
</g>
<g transform="translate(270 0)">
<rect x="0" y="0" width="80" height="80" fill="#fff"/>
<defs>
<clipPath id="clipper">
<rect width="80" height="80"/>
</clipPath>
</defs>
<g clip-path="url(#clipper)">
<rect x="0" y="0" width="10" height="10" fill="#302249" style="stroke:#302249; stroke-width:7"/>
<rect x="70" y="0" width="10" height="10" fill="#302249" style="stroke:#302249; stroke-width:7"/>
<rect x="30" y="0" width="10" height="10" fill="#302249" style="stroke:#302249; stroke-width:7"/>
<rect x="40" y="0" width="10" height="10" fill="#302249" style="stroke:#302249; stroke-width:7"/>
<rect x="30" y="10" width="10" height="10" fill="#302249" style="stroke:#302249; stroke-width:7"/>
<rect x="40" y="10" width="10" height="10" fill="#302249" style="stroke:#302249; stroke-width:7"/>
<rect x="0" y="20" width="10" height="10" fill="#302249" style="stroke:#302249; stroke-width:7"/>
<rect x="70" y="20" width="10" height="10" fill="#302249" style="stroke:#302249; stroke-width:7"/>
<rect x="0" y="30" width="10" height="10" fill="#302249" style="stroke:#302249; stroke-width:7"/>
<rect x="70" y="30" width="10" height="10" fill="#302249" style="stroke:#302249; stroke-width:7"/>
<rect x="10" y="30" width="10" height="10" fill="#302249" style="stroke:#302249; stroke-width:7"/>
<rect x="60" y="30" width="10" height="10" fill="#302249" style="stroke:#302249; stroke-width:7"/>
<rect x="20" y="30" width="10" height="10" fill="#302249" style="stroke:#302249; stroke-width:7"/>
<rect x="50" y="30" width="10" height="10" fill="#302249" style="stroke:#302249; stroke-width:7"/>
<rect x="30" y="30" width="10" height="10" fill="#302249" style="stroke:#302249; stroke-width:7"/>
<rect x="40" y="30" width="10" height="10" fill="#302249" style="stroke:#302249; stroke-width:7"/>
<rect x="0" y="60" width="10" height="10" fill="#302249" style="stroke:#302249; stroke-width:7"/>
<rect x="70" y="60" width="10" height="10" fill="#302249" style="stroke:#302249; stroke-width:7"/>
<rect x="20" y="60" width="10" height="10" fill="#302249" style="stroke:#302249; stroke-width:7"/>
<rect x="50" y="60" width="10" height="10" fill="#302249" style="stroke:#302249; stroke-width:7"/>
</g>
</g>
<g transform="translate(360 0)">
<rect x="0" y="0" width="80" height="80" fill="#fff"/>
<defs>
<clipPath id="clipper">
<rect width="80" height="80"/>
</clipPath>
</defs>
<g clip-path="url(#clipper)">
<rect x="10" y="0" width="10" height="10" fill="#51a481" style="stroke:#51a481; stroke-width:7"/>
<rect x="60" y="0" width="10" height="10" fill="#51a481" style="stroke:#51a481; stroke-width:7"/>
<rect x="20" y="0" width="10" height="10" fill="#51a481" style="stroke:#51a481; stroke-width:7"/>
<rect x="50" y="0" width="10" height="10" fill="#51a481" style="stroke:#51a481; stroke-width:7"/>
<rect x="20" y="10" width="10" height="10" fill="#51a481" style="stroke:#51a481; stroke-width:7"/>
<rect x="50" y="10" width="10" height="10" fill="#51a481" style="stroke:#51a481; stroke-width:7"/>
<rect x="0" y="20" width="10" height="10" fill="#51a481" style="stroke:#51a481; stroke-width:7"/>
<rect x="70" y="20" width="10" height="10" fill="#51a481" style="stroke:#51a481; stroke-width:7"/>
<rect x="20" y="20" width="10" height="10" fill="#51a481" style="stroke:#51a481; stroke-width:7"/>
<rect x="50" y="20" width="10" height="10" fill="#51a481" style="stroke:#51a481; stroke-width:7"/>
<rect x="20" y="30" width="10" height="10" fill="#51a481" style="stroke:#51a481; stroke-width:7"/>
<rect x="50" y="30" width="10" height="10" fill="#51a481" style="stroke:#51a481; stroke-width:7"/>
<rect x="30" y="40" width="10" height="10" fill="#51a481" style="stroke:#51a481; stroke-width:7"/>
<rect x="40" y="40" width="10" height="10" fill="#51a481" style="stroke:#51a481; stroke-width:7"/>
<rect x="10" y="50" width="10" height="10" fill="#51a481" style="stroke:#51a481; stroke-width:7"/>
<rect x="60" y="50" width="10" height="10" fill="#51a481" style="stroke:#51a481; stroke-width:7"/>
<rect x="20" y="50" width="10" height="10" fill="#51a481" style="stroke:#51a481; stroke-width:7"/>
<rect x="50" y="50" width="10" height="10" fill="#51a481" style="stroke:#51a481; stroke-width:7"/>
<rect x="20" y="70" width="10" height="10" fill="#51a481" style="stroke:#51a481; stroke-width:7"/>
<rect x="50" y="70" width="10" height="10" fill="#51a481" style="stroke:#51a481; stroke-width:7"/>
<rect x="30" y="70" width="10" height="10" fill="#51a481" style="stroke:#51a481; stroke-width:7"/>
<rect x="40" y="70" width="10" height="10" fill="#51a481" style="stroke:#51a481; stroke-width:7"/>
</g>
</g>

</svg>